# xmcd CD database file
#
# Track frame offsets:
#	150
#	28872
#	51680
#	70667
#	87530
#	116997
#	135560
#	157742
#	174935
#	192852
#	211820
#	237707
#	261892
#	280657
#	305442
#
# Disc length: 4453 seconds
#
# Revision: 9
# Processed by: cddbd v1.4PL0 Copyright (c) Steve Scherf et al.
# Submitted via: CDex 1.40Beta8
#
DISCID=da11630f
DTITLE=David Bowie - BBC Radio Theatre, London 06-27-00
DYEAR=2000
DGENRE=Rock
TTITLE0=Wild Is The Wind
TTITLE1=Ashes To Ashes
TTITLE2=Seven
TTITLE3=This Is Not America
TTITLE4=Absolute Beginners
TTITLE5=Always Crashing In The Same Car
TTITLE6=Survive
TTITLE7=Little Wonder
TTITLE8=Man Who Sold The World
TTITLE9=Fame
TTITLE10=Stay
TTITLE11=Hallo Spaceboy
TTITLE12=Cracked Actor
TTITLE13=I'm Afraid Of Americans
TTITLE14=Let's Dance
EXTD=YEAR: 2000 ID3G: 17
EXTT0=
EXTT1=
EXTT2=
EXTT3=
EXTT4=
EXTT5=
EXTT6=
EXTT7=
EXTT8=
EXTT9=
EXTT10=
EXTT11=
EXTT12=
EXTT13=
EXTT14=
PLAYORDER=
